<svg width="335" height="406" viewBox="0 0 335 406" fill="none" xmlns="http://www.w3.org/2000/svg">
<g clip-path="url(#clip0_1022_81605)">
<rect width="335" height="406" rx="28" fill="#080D23"/>
<path d="M266.158 125.844L253.182 124.351L223.551 120.958L179.702 180.133L209.382 183.546L222.317 185.037L254.485 188.725L298.317 129.557L298.344 129.526L266.158 125.844Z" fill="#FFDDA8"/>
<path d="M223.952 121.876L181.295 179.461L221.068 184.019L235.954 185.715L253.984 187.565L263.014 175.771L296.751 130.236L223.952 121.876Z" fill="#F9C98A"/>
<path d="M254.486 188.724L279.736 246.894L247.685 243.336L234.714 241.902L205.069 238.616L179.693 180.156L209.39 183.561L222.376 185.03L254.486 188.724Z" fill="#BC7C46"/>
<path d="M254.486 188.727L279.736 246.897L323.647 187.958L298.301 129.566L254.486 188.727Z" fill="#DDA866"/>
<path d="M284.951 171.84L284.708 172.168L282.342 166.717L282.592 166.406L284.951 171.84Z" fill="#4F2E16"/>
<path d="M283.953 166.461L283.877 166.94L282.535 166.692L282.307 169.058L282.041 169.052L282.306 166.164L283.953 166.461Z" fill="#4F2E16"/>
<path d="M287.286 168.683L287.061 169.004L284.695 163.553L284.927 163.25L287.286 168.683Z" fill="#4F2E16"/>
<path d="M286.287 163.305L286.228 163.776L284.869 163.536L284.641 165.902L284.375 165.896L284.639 163.008L286.287 163.305Z" fill="#4F2E16"/>
<path d="M288.272 167.645L283.911 173.547C283.848 173.635 283.757 173.613 283.72 173.528C283.676 173.426 283.692 173.277 283.755 173.189L288.117 167.288C288.18 167.2 288.263 167.204 288.307 167.306C288.352 167.408 288.335 167.557 288.272 167.645Z" fill="#4F2E16"/>
<path d="M288.856 169.133L284.55 174.929C284.084 175.536 283.489 175.471 283.186 174.772L280.31 168.146C280.007 167.448 280.131 166.382 280.579 165.782L284.885 159.986C285.333 159.387 285.946 159.445 286.249 160.143L289.125 166.769C289.428 167.468 289.304 168.534 288.856 169.133ZM280.742 166.157C280.427 166.597 280.328 167.349 280.542 167.843L283.419 174.469C283.633 174.963 284.079 175.012 284.402 174.589L288.708 168.792C289.023 168.352 289.122 167.601 288.907 167.107L286.031 160.481C285.817 159.987 285.37 159.937 285.048 160.361L280.742 166.157Z" fill="#4F2E16"/>
<path d="M292.735 162.445C292.672 162.533 292.589 162.529 292.545 162.427L290.489 157.691C290.445 157.589 290.461 157.44 290.524 157.352C290.587 157.264 290.678 157.286 290.715 157.371L292.77 162.106C292.822 162.226 292.806 162.374 292.735 162.445Z" fill="#4F2E16"/>
<path d="M295.271 160.453L290.965 166.25C290.499 166.857 289.904 166.791 289.601 166.093L286.725 159.466C286.422 158.768 286.546 157.702 286.994 157.103L291.3 151.306C291.749 150.707 292.361 150.765 292.664 151.463L295.54 158.089C295.843 158.788 295.712 159.837 295.271 160.453ZM287.15 157.46C286.835 157.901 286.736 158.652 286.95 159.146L289.826 165.772C290.041 166.266 290.487 166.315 290.802 165.875L295.108 160.079C295.423 159.638 295.522 158.887 295.307 158.393L292.431 151.767C292.217 151.273 291.77 151.224 291.456 151.664L287.15 157.46Z" fill="#4F2E16"/>
<path d="M293.032 156.645C292.434 155.873 291.374 156.09 290.494 157.281C289.615 158.473 289.213 160.206 289.487 161.443L293.032 156.645Z" fill="#4F2E16"/>
<path d="M289.601 157.508C289.538 157.596 289.448 157.575 289.411 157.489L288.908 156.331C288.863 156.229 288.88 156.08 288.943 155.992C289.006 155.904 289.089 155.908 289.133 156.011L289.636 157.169C289.68 157.271 289.671 157.437 289.601 157.508Z" fill="#4F2E16"/>
<path d="M290.229 156.668C290.166 156.756 290.083 156.752 290.038 156.65L289.536 155.491C289.491 155.389 289.508 155.24 289.571 155.152C289.634 155.064 289.717 155.069 289.761 155.171L290.264 156.329C290.316 156.448 290.299 156.597 290.229 156.668Z" fill="#4F2E16"/>
<path d="M290.846 155.857C290.783 155.945 290.7 155.94 290.655 155.838L290.153 154.68C290.108 154.577 290.125 154.429 290.188 154.341C290.251 154.252 290.341 154.274 290.378 154.359L290.881 155.517C290.918 155.603 290.909 155.769 290.846 155.857Z" fill="#4F2E16"/>
<path d="M301.65 151.875L297.344 157.672C296.895 158.271 296.283 158.213 295.98 157.514L293.104 150.888C292.801 150.19 292.925 149.124 293.373 148.524L297.679 142.728C298.127 142.129 298.74 142.187 299.043 142.885L301.919 149.511C302.215 150.193 302.108 151.251 301.65 151.875ZM293.546 148.875C293.231 149.315 293.132 150.067 293.353 150.578L296.23 157.204C296.444 157.698 296.89 157.747 297.213 157.323L301.519 151.527C301.834 151.087 301.933 150.335 301.711 149.824L298.835 143.198C298.62 142.704 298.174 142.655 297.851 143.079L293.546 148.875Z" fill="#4F2E16"/>
<path d="M298.722 152.965C298.659 153.053 298.576 153.048 298.531 152.946L296.476 148.211C296.431 148.109 296.448 147.96 296.511 147.872C296.574 147.784 296.664 147.805 296.701 147.89L298.757 152.626C298.801 152.728 298.784 152.877 298.722 152.965Z" fill="#4F2E16"/>
<path d="M299.259 152.245L298.184 153.684C298.121 153.772 298.038 153.767 297.993 153.665C297.949 153.563 297.965 153.414 298.028 153.326L299.104 151.887C299.167 151.799 299.258 151.821 299.294 151.906C299.339 152.008 299.322 152.157 299.259 152.245Z" fill="#4F2E16"/>
<path d="M297.457 145.902L298.419 148.117C298.677 148.713 298.569 149.63 298.184 150.141L297.331 151.301C296.953 151.83 296.417 151.759 296.158 151.163L295.197 148.948L295.618 148.381L296.646 150.748C296.69 150.851 296.773 150.855 296.836 150.767C296.899 150.679 296.916 150.53 296.871 150.428L295.843 148.06L297.457 145.902Z" fill="#4F2E16"/>
<path d="M217.149 172.99L247.686 243.339L234.715 241.904L209.361 183.496L217.149 172.99Z" fill="#9B7451"/>
<path d="M266.16 125.845L222.355 184.981L222.318 185.037L209.391 183.563L209.361 183.495L217.149 172.989L253.167 124.359L266.16 125.845Z" fill="#CAAF8F"/>
<path d="M-25.612 138.661L-25.2138 150.668L-24.2897 178.082L35.4771 209.961L34.564 182.5L34.1693 170.531L33.1706 140.769L-26.5872 108.904L-26.6197 108.884L-25.612 138.661Z" fill="#FFDDA8"/>
<path d="M-23.5074 177.594L34.6513 208.604L33.4141 171.806L32.9422 158.035L32.1846 141.383L20.233 134.764L-25.7567 110.238L-23.5074 177.594Z" fill="#F9C98A"/>
<path d="M33.17 140.771L82.669 109.927L83.771 139.565L84.2218 151.559L85.2454 178.972L35.5 209.969L34.5779 182.493L34.1561 170.481L33.17 140.771Z" fill="#BC7C46"/>
<path d="M33.1705 140.77L82.6695 109.926L23.1091 77.9589L-26.5783 108.92L33.1705 140.77Z" fill="#DDA866"/>
<path d="M13.6836 115.34L14.0146 115.516L9.3764 118.406L9.05984 118.221L13.6836 115.34Z" fill="#4F2E16"/>
<path d="M8.92758 116.976L9.37291 116.98L9.32961 118.234L11.513 118.122L11.5434 118.364L8.88023 118.514L8.92758 116.976Z" fill="#4F2E16"/>
<path d="M10.4944 113.643L10.8164 113.805L6.17811 116.695L5.87063 116.524L10.4944 113.643Z" fill="#4F2E16"/>
<path d="M5.73813 115.28L6.17442 115.27L6.14011 116.539L8.32351 116.426L8.35396 116.669L5.69078 116.819L5.73813 115.28Z" fill="#4F2E16"/>
<path d="M9.41788 112.886L15.3767 116.055C15.4653 116.1 15.4579 116.185 15.3855 116.231C15.2985 116.285 15.161 116.29 15.0723 116.245L9.1135 113.076C9.02486 113.03 9.01771 112.954 9.10467 112.9C9.19164 112.846 9.32923 112.841 9.41788 112.886Z" fill="#4F2E16"/>
<path d="M10.6926 112.155L16.5482 115.287C17.1633 115.628 17.1842 116.179 16.5899 116.549L10.9516 120.062C10.3573 120.433 9.37061 120.464 8.76461 120.137L2.90895 117.005C2.30294 116.678 2.27297 116.113 2.86725 115.743L8.50562 112.229C9.0999 111.859 10.0866 111.828 10.6926 112.155ZM9.08349 119.938C9.5267 120.165 10.2237 120.154 10.644 119.892L16.2824 116.378C16.7028 116.116 16.687 115.704 16.2583 115.468L10.4027 112.335C9.95945 112.108 9.26246 112.12 8.84212 112.382L3.20375 115.895C2.78341 116.157 2.79911 116.57 3.22783 116.806L9.08349 119.938Z" fill="#4F2E16"/>
<path d="M4.08637 109.533C4.17501 109.579 4.18213 109.655 4.09516 109.709L0.065669 112.22C-0.0212985 112.274 -0.158896 112.279 -0.247539 112.234C-0.336182 112.188 -0.328795 112.103 -0.256322 112.058L3.77317 109.547C3.87463 109.484 4.01222 109.479 4.08637 109.533Z" fill="#4F2E16"/>
<path d="M1.93179 107.494L7.78745 110.627C8.40249 110.968 8.42347 111.518 7.82919 111.889L2.19078 115.402C1.5965 115.772 0.609875 115.804 0.0038717 115.477L-5.85179 112.345C-6.45779 112.018 -6.48781 111.453 -5.89353 111.083L-0.25516 107.569C0.339118 107.199 1.3113 107.177 1.93179 107.494ZM0.308245 115.287C0.751458 115.514 1.44845 115.503 1.86879 115.241L7.50716 111.727C7.9275 111.465 7.91178 111.053 7.46857 110.826L1.61291 107.693C1.1697 107.466 0.472709 107.478 0.0523667 107.74L-5.586 111.253C-6.00634 111.515 -5.99063 111.928 -5.54741 112.155L0.308245 115.287Z" fill="#4F2E16"/>
<path d="M-1.22789 110.047C-1.8497 110.696 -1.5088 111.631 -0.305821 112.27C0.897154 112.908 2.52804 113.039 3.61659 112.623L-1.22789 110.047Z" fill="#4F2E16"/>
<path d="M0.0216623 113.049C0.110305 113.095 0.102963 113.18 0.0304897 113.225L-0.955131 113.839C-1.0421 113.893 -1.17969 113.899 -1.26833 113.853C-1.35697 113.808 -1.36413 113.732 -1.27717 113.678L-0.291546 113.063C-0.204578 113.009 -0.0524857 112.995 0.0216623 113.049Z" fill="#4F2E16"/>
<path d="M23.9086 176.865L83.7712 139.564L84.222 151.558L34.52 182.528L23.9086 176.865Z" fill="#9B7451"/>
<path d="M-25.6133 138.663L34.112 170.508L34.1681 170.533L34.5773 182.493L34.5193 182.529L23.9078 176.866L-25.206 150.684L-25.6133 138.663Z" fill="#CAAF8F"/>
<path d="M220.089 -12.0609L208.904 -25.278L183.35 -55.4436L87.2828 -38.0476L112.867 -7.81912L124.014 5.35813L151.752 38.1114L247.796 20.7072L247.85 20.7007L220.089 -12.0609Z" fill="#FFDDA8"/>
<path d="M182.903 -54.1931L89.4313 -37.2522L123.729 3.24097L136.575 18.3876L152.319 36.5352L171.747 33.3319L245.666 19.9419L182.903 -54.1931Z" fill="#F9C98A"/>
<path d="M151.753 38.113L123.371 117.236L95.6275 84.7159L84.3948 71.5601L58.7292 41.4854L87.2529 -38.0312L112.86 -7.79434L124.076 5.40777L151.753 38.113Z" fill="#BC7C46"/>
<path d="M151.753 38.1125L123.371 117.235L219.284 100.124L247.774 20.7L151.753 38.1125Z" fill="#DDA866"/>
<path d="M196.517 49.4395L195.985 49.5364L198.644 42.1223L199.168 42.0485L196.517 49.4395Z" fill="#4F2E16"/>
<path d="M200.431 43.3387L199.924 43.7321L198.851 42.2752L196.484 44.3549L196.232 44.1078L199.109 41.5569L200.431 43.3387Z" fill="#4F2E16"/>
<path d="M201.638 48.5015L201.129 48.6067L203.789 41.1926L204.289 41.1105L201.638 48.5015Z" fill="#4F2E16"/>
<path d="M205.552 42.4012L205.068 42.8029L203.972 41.3377L201.605 43.4174L201.354 43.1703L204.23 40.6194L205.552 42.4012Z" fill="#4F2E16"/>
<path d="M203.531 48.3966L193.962 50.1417C193.821 50.1697 193.753 50.0669 193.795 49.951C193.845 49.812 193.996 49.6832 194.136 49.6552L203.706 47.9101C203.847 47.8821 203.923 47.9617 203.873 48.1007C203.823 48.2397 203.672 48.3687 203.531 48.3966Z" fill="#4F2E16"/>
<path d="M202.746 50.3642L193.325 52.0582C192.325 52.2224 191.809 51.6189 192.15 50.669L195.383 41.6562C195.724 40.7062 196.811 39.7888 197.788 39.6163L207.209 37.9223C208.186 37.7498 208.725 38.3616 208.384 39.3115L205.151 48.3243C204.81 49.2742 203.723 50.1917 202.746 50.3642ZM197.606 40.126C196.902 40.2658 196.124 40.9022 195.883 41.5741L192.65 50.5869C192.409 51.2588 192.796 51.7114 193.492 51.5948L202.912 49.9008C203.616 49.761 204.393 49.1246 204.634 48.4527L207.867 39.4399C208.108 38.768 207.721 38.3154 207.026 38.432L197.606 40.126Z" fill="#4F2E16"/>
<path d="M212.559 47.4247C212.418 47.4526 212.342 47.373 212.392 47.234L214.703 40.793C214.753 40.654 214.904 40.525 215.044 40.4971C215.185 40.4691 215.253 40.5719 215.211 40.6877L212.901 47.1288C212.843 47.291 212.692 47.4199 212.559 47.4247Z" fill="#4F2E16"/>
<path d="M216.816 47.8016L207.396 49.4956C206.395 49.6598 205.88 49.0564 206.22 48.1065L209.453 39.0936C209.794 38.1437 210.882 37.2263 211.859 37.0538L221.279 35.3598C222.256 35.1873 222.795 35.799 222.454 36.749L219.221 45.7617C218.881 46.7117 217.801 47.606 216.816 47.8016ZM211.684 37.5403C210.98 37.6801 210.203 38.3165 209.962 38.9884L206.729 48.0012C206.488 48.6731 206.875 49.1257 207.578 48.9859L216.999 47.2919C217.703 47.1522 218.48 46.5157 218.721 45.8438L221.954 36.8311C222.195 36.1592 221.808 35.7066 221.105 35.8463L211.684 37.5403Z" fill="#4F2E16"/>
<path d="M218.108 42.0918C218.231 40.8022 217.01 40.0504 215.079 40.4038C213.148 40.7571 211.187 42.0673 210.329 43.5116L218.108 42.0918Z" fill="#4F2E16"/>
<path d="M214.007 39.8094C213.866 39.8373 213.799 39.7346 213.84 39.6188L214.405 38.0433C214.455 37.9043 214.606 37.7753 214.747 37.7474C214.888 37.7194 214.964 37.799 214.914 37.938L214.349 39.5135C214.299 39.6525 214.14 39.8046 214.007 39.8094Z" fill="#4F2E16"/>
<path d="M215.375 39.5672C215.235 39.5952 215.159 39.5156 215.208 39.3766L215.774 37.8011C215.823 37.6621 215.974 37.5331 216.115 37.5052C216.256 37.4772 216.332 37.5568 216.282 37.6958L215.717 39.2713C215.659 39.4335 215.508 39.5624 215.375 39.5672Z" fill="#4F2E16"/>
<path d="M216.711 39.3404C216.57 39.3683 216.494 39.2887 216.544 39.1497L217.109 37.5742C217.159 37.4352 217.31 37.3063 217.451 37.2783C217.591 37.2504 217.659 37.3531 217.617 37.469L217.052 39.0445C217.011 39.1603 216.852 39.3124 216.711 39.3404Z" fill="#4F2E16"/>
<path d="M230.765 45.2978L221.344 46.9918C220.367 47.1643 219.828 46.5525 220.169 45.6026L223.402 36.5898C223.743 35.6398 224.83 34.7224 225.807 34.5499L235.228 32.8559C236.205 32.6834 236.744 33.2952 236.403 34.2451L233.17 43.2579C232.838 44.1847 231.773 45.1104 230.765 45.2978ZM225.656 35.0448C224.952 35.1845 224.175 35.8209 223.925 36.516L220.692 45.5288C220.451 46.2007 220.838 46.6533 221.534 46.5367L230.954 44.8427C231.658 44.7029 232.435 44.0666 232.685 43.3715L235.918 34.3586C236.159 33.6867 235.772 33.2342 235.076 33.3508L225.656 35.0448Z" fill="#4F2E16"/>
<path d="M226.947 43.6941C226.807 43.7221 226.731 43.6425 226.78 43.5035L229.091 37.0625C229.141 36.9235 229.292 36.7945 229.432 36.7666C229.573 36.7386 229.641 36.8414 229.599 36.9573L227.289 43.3983C227.239 43.5373 227.088 43.6662 226.947 43.6941Z" fill="#4F2E16"/>
<path d="M228.12 43.4864L225.775 43.9004C225.634 43.9284 225.558 43.8488 225.608 43.7097C225.658 43.5707 225.809 43.4419 225.95 43.4139L228.295 42.9999C228.435 42.9719 228.503 43.0747 228.462 43.1905C228.412 43.3295 228.261 43.4585 228.12 43.4864Z" fill="#4F2E16"/>
<path d="M232.135 35.7211L231.054 38.733C230.763 39.5439 229.827 40.3325 228.99 40.477L227.114 40.8237C226.269 40.9914 225.815 40.4362 226.106 39.6253L227.186 36.6132L228.108 36.4473L226.953 39.6678C226.903 39.8068 226.979 39.8864 227.12 39.8584C227.261 39.8305 227.412 39.7015 227.462 39.5625L228.617 36.342L232.135 35.7211Z" fill="#4F2E16"/>
<path d="M129.954 -10.9732L95.6287 84.7155L84.3961 71.5597L112.895 -7.88744L129.954 -10.9732Z" fill="#9B7451"/>
<path d="M220.092 -12.0595L124.102 5.33806L124.016 5.3595L112.861 -7.79454L112.895 -7.88724L129.953 -10.973L208.884 -25.2849L220.092 -12.0595Z" fill="#CAAF8F"/>
</g>
<defs>
<clipPath id="clip0_1022_81605">
<rect width="335" height="406" rx="28" fill="white"/>
</clipPath>
</defs>
</svg>
